<?xml version="1.0" encoding="iso-8859-1"?>
<!-- Generator: Adobe Illustrator 19.0.0, SVG Export Plug-In . SVG Version: 6.00 Build 0)  -->
<svg version="1.1" id="Capa_1" xmlns="http://www.w3.org/2000/svg" xmlns:xlink="http://www.w3.org/1999/xlink" x="0px" y="0px"
	 viewBox="0 0 470 470" style="enable-background:new 0 0 470 470;" xml:space="preserve">
<g>
	<path d="M122.516,233.187c0,4.142,3.358,7.5,7.5,7.5h209.968c4.142,0,7.5-3.358,7.5-7.5s-3.358-7.5-7.5-7.5H130.016
		C125.874,225.687,122.516,229.045,122.516,233.187z"/>
	<path d="M399.984,165.489h-83.098c-4.142,0-7.5,3.358-7.5,7.5s3.358,7.5,7.5,7.5h75.598v109.396H77.516V180.489h73.8
		c4.142,0,7.5-3.358,7.5-7.5s-3.358-7.5-7.5-7.5h-81.3c-4.142,0-7.5,3.358-7.5,7.5V462.5c0,4.142,3.358,7.5,7.5,7.5h329.968
		c4.142,0,7.5-3.358,7.5-7.5V172.989C407.484,168.847,404.126,165.489,399.984,165.489z M77.516,455V304.885h314.968V455H77.516z"/>
	<path d="M369.984,319.885c-4.142,0-7.5,3.358-7.5,7.5V425H160.016c-4.142,0-7.5,3.358-7.5,7.5s3.358,7.5,7.5,7.5h209.968
		c4.142,0,7.5-3.358,7.5-7.5V327.385C377.484,323.243,374.126,319.885,369.984,319.885z"/>
	<path d="M130.016,425h-22.5v-97.615c0-4.142-3.358-7.5-7.5-7.5s-7.5,3.358-7.5,7.5V432.5c0,4.142,3.358,7.5,7.5,7.5h30
		c4.142,0,7.5-3.358,7.5-7.5S134.158,425,130.016,425z"/>
	<path d="M207.599,207.713c1.475,1.949,3.717,2.975,5.987,2.975c1.576,0,3.166-0.495,4.519-1.519
		c3.304-2.499,3.956-7.203,1.456-10.506l-76.807-101.52c-6.774-8.952-10.354-19.634-10.354-30.89
		c0-28.261,22.992-51.253,51.253-51.253c27.983,0,50.75,22.766,50.75,50.75c0,4.142,3.358,7.5,7.5,7.5s7.5-3.358,7.5-7.5
		c0-9.785-2.164-19.069-6.015-27.423C252.807,23.854,268.958,15,286.348,15c28.261,0,51.253,22.992,51.253,51.253
		c0,11.256-3.581,21.938-10.354,30.89l-76.807,101.52c-2.5,3.303-1.848,8.007,1.456,10.506c1.354,1.024,2.943,1.519,4.519,1.519
		c2.27,0,4.512-1.026,5.987-2.975l76.807-101.52c8.761-11.579,13.393-25.39,13.393-39.94C352.601,29.721,322.88,0,286.348,0
		c-20.157,0-39.021,9.2-51.482,24.582C222.804,9.607,204.334,0,183.652,0c-36.532,0-66.253,29.721-66.253,66.253
		c0,14.55,4.631,28.362,13.393,39.94L207.599,207.713z"/>
</g>
<g>
</g>
<g>
</g>
<g>
</g>
<g>
</g>
<g>
</g>
<g>
</g>
<g>
</g>
<g>
</g>
<g>
</g>
<g>
</g>
<g>
</g>
<g>
</g>
<g>
</g>
<g>
</g>
<g>
</g>
</svg>
